<svg xmlns="http://www.w3.org/2000/svg" xmlns:xlink="http://www.w3.org/1999/xlink" width="500" zoomAndPan="magnify" viewBox="0 0 375 374.999991" height="500" preserveAspectRatio="xMidYMid meet" version="1.0"><defs><clipPath id="7d2de1a226"><path d="M 76.671875 76.671875 L 298.671875 76.671875 L 298.671875 298.671875 L 76.671875 298.671875 Z M 76.671875 76.671875 " clip-rule="nonzero"/></clipPath></defs><g clip-path="url(#7d2de1a226)"><path fill="#ffffff" d="M 276.144531 165.332031 L 209.566406 165.332031 L 209.566406 98.84375 C 209.566406 86.613281 199.636719 76.679688 187.402344 76.679688 C 175.171875 76.679688 165.238281 86.613281 165.238281 98.84375 L 165.238281 165.335938 L 98.84375 165.332031 C 86.609375 165.332031 76.679688 175.261719 76.679688 187.492188 C 76.679688 199.726562 86.609375 209.65625 98.84375 209.65625 L 165.246094 209.65625 L 165.246094 276.148438 C 165.246094 288.382812 175.175781 298.3125 187.410156 298.3125 C 199.640625 298.3125 209.570312 288.382812 209.570312 276.148438 L 209.570312 209.65625 L 276.144531 209.65625 C 288.378906 209.65625 298.308594 199.726562 298.308594 187.492188 C 298.308594 175.261719 288.378906 165.332031 276.144531 165.332031 Z M 276.144531 165.332031 " fill-opacity="1" fill-rule="evenodd"/></g></svg>