<svg xmlns="http://www.w3.org/2000/svg" xmlns:xlink="http://www.w3.org/1999/xlink" width="500" zoomAndPan="magnify" viewBox="0 0 375 374.999991" height="500" preserveAspectRatio="xMidYMid meet" version="1.0"><defs><clipPath id="3f72c19218"><path d="M 161.050781 161.050781 L 214 161.050781 L 214 214 L 161.050781 214 Z M 161.050781 161.050781 " clip-rule="nonzero"/></clipPath><clipPath id="da7519e21c"><path d="M 6.632812 69 L 368 69 L 368 306 L 6.632812 306 Z M 6.632812 69 " clip-rule="nonzero"/></clipPath></defs><g clip-path="url(#3f72c19218)"><path fill="#006daa" d="M 213.9375 187.496094 C 213.9375 188.359375 213.894531 189.226562 213.8125 190.085938 C 213.726562 190.949219 213.597656 191.804688 213.429688 192.652344 C 213.261719 193.503906 213.050781 194.34375 212.800781 195.171875 C 212.546875 196 212.257812 196.8125 211.925781 197.613281 C 211.59375 198.414062 211.222656 199.195312 210.816406 199.960938 C 210.40625 200.722656 209.964844 201.464844 209.480469 202.1875 C 209 202.90625 208.484375 203.601562 207.9375 204.269531 C 207.386719 204.941406 206.804688 205.582031 206.191406 206.191406 C 205.582031 206.804688 204.941406 207.386719 204.269531 207.9375 C 203.601562 208.484375 202.90625 209 202.1875 209.480469 C 201.464844 209.964844 200.722656 210.40625 199.960938 210.816406 C 199.195312 211.222656 198.414062 211.59375 197.613281 211.925781 C 196.8125 212.257812 196 212.546875 195.171875 212.800781 C 194.34375 213.050781 193.503906 213.261719 192.652344 213.429688 C 191.804688 213.597656 190.949219 213.726562 190.085938 213.8125 C 189.226562 213.894531 188.359375 213.9375 187.496094 213.9375 C 186.628906 213.9375 185.765625 213.894531 184.902344 213.8125 C 184.042969 213.726562 183.1875 213.597656 182.335938 213.429688 C 181.488281 213.261719 180.648438 213.050781 179.820312 212.800781 C 178.988281 212.546875 178.175781 212.257812 177.375 211.925781 C 176.574219 211.59375 175.792969 211.222656 175.03125 210.816406 C 174.265625 210.40625 173.523438 209.964844 172.804688 209.480469 C 172.082031 209 171.390625 208.484375 170.71875 207.9375 C 170.050781 207.386719 169.410156 206.804688 168.796875 206.191406 C 168.183594 205.582031 167.601562 204.941406 167.054688 204.269531 C 166.503906 203.601562 165.988281 202.90625 165.507812 202.1875 C 165.027344 201.464844 164.582031 200.722656 164.175781 199.960938 C 163.765625 199.195312 163.394531 198.414062 163.066406 197.613281 C 162.734375 196.8125 162.441406 196 162.191406 195.171875 C 161.9375 194.34375 161.730469 193.503906 161.558594 192.652344 C 161.390625 191.804688 161.265625 190.949219 161.179688 190.085938 C 161.09375 189.226562 161.050781 188.359375 161.050781 187.496094 C 161.050781 186.628906 161.09375 185.765625 161.179688 184.902344 C 161.265625 184.042969 161.390625 183.1875 161.558594 182.335938 C 161.730469 181.488281 161.9375 180.648438 162.191406 179.820312 C 162.441406 178.988281 162.734375 178.175781 163.066406 177.375 C 163.394531 176.574219 163.765625 175.792969 164.175781 175.03125 C 164.582031 174.265625 165.027344 173.523438 165.507812 172.804688 C 165.988281 172.082031 166.503906 171.390625 167.054688 170.71875 C 167.601562 170.050781 168.183594 169.410156 168.796875 168.796875 C 169.410156 168.183594 170.050781 167.601562 170.71875 167.054688 C 171.390625 166.503906 172.082031 165.988281 172.804688 165.507812 C 173.523438 165.027344 174.265625 164.582031 175.03125 164.175781 C 175.792969 163.765625 176.574219 163.394531 177.375 163.066406 C 178.175781 162.734375 178.988281 162.441406 179.820312 162.191406 C 180.648438 161.9375 181.488281 161.730469 182.335938 161.558594 C 183.1875 161.390625 184.042969 161.265625 184.902344 161.179688 C 185.765625 161.09375 186.628906 161.050781 187.496094 161.050781 C 188.359375 161.050781 189.226562 161.09375 190.085938 161.179688 C 190.949219 161.265625 191.804688 161.390625 192.652344 161.558594 C 193.503906 161.730469 194.34375 161.9375 195.171875 162.191406 C 196 162.441406 196.8125 162.734375 197.613281 163.066406 C 198.414062 163.394531 199.195312 163.765625 199.960938 164.175781 C 200.722656 164.582031 201.464844 165.027344 202.1875 165.507812 C 202.90625 165.988281 203.601562 166.503906 204.269531 167.054688 C 204.941406 167.601562 205.582031 168.183594 206.191406 168.796875 C 206.804688 169.410156 207.386719 170.050781 207.9375 170.71875 C 208.484375 171.390625 209 172.082031 209.480469 172.804688 C 209.964844 173.523438 210.40625 174.265625 210.816406 175.03125 C 211.222656 175.792969 211.59375 176.574219 211.925781 177.375 C 212.257812 178.175781 212.546875 178.988281 212.800781 179.820312 C 213.050781 180.648438 213.261719 181.488281 213.429688 182.335938 C 213.597656 183.1875 213.726562 184.042969 213.8125 184.902344 C 213.894531 185.765625 213.9375 186.628906 213.9375 187.496094 Z M 213.9375 187.496094 " fill-opacity="1" fill-rule="nonzero"/></g><g clip-path="url(#da7519e21c)"><path fill="#006daa" d="M 186.929688 69.179688 C 110.753906 69.179688 40.4375 113.578125 7.761719 182.429688 C 6.296875 185.695312 6.296875 189.527344 7.761719 192.683594 C 40.550781 261.421875 110.867188 305.820312 186.929688 305.820312 C 262.996094 305.820312 333.308594 261.421875 366.101562 192.683594 C 367.566406 189.527344 367.566406 185.695312 366.101562 182.429688 C 333.421875 113.578125 263.105469 69.179688 186.929688 69.179688 Z M 186.929688 258.941406 C 147.605469 258.941406 115.488281 226.828125 115.488281 187.5 C 115.488281 148.171875 147.605469 116.054688 186.929688 116.054688 C 226.257812 116.054688 258.375 148.171875 258.375 187.5 C 258.375 226.828125 226.257812 258.941406 186.929688 258.941406 Z M 186.929688 258.941406 " fill-opacity="1" fill-rule="nonzero"/></g><path fill="#006daa" d="M 234.257812 187.5 C 234.257812 189.050781 234.183594 190.597656 234.03125 192.136719 C 233.878906 193.679688 233.652344 195.210938 233.351562 196.734375 C 233.046875 198.253906 232.671875 199.753906 232.222656 201.238281 C 231.769531 202.722656 231.25 204.179688 230.65625 205.609375 C 230.0625 207.042969 229.402344 208.441406 228.671875 209.808594 C 227.941406 211.175781 227.144531 212.503906 226.28125 213.792969 C 225.421875 215.082031 224.5 216.324219 223.515625 217.523438 C 222.53125 218.722656 221.492188 219.871094 220.398438 220.964844 C 219.300781 222.0625 218.152344 223.101562 216.957031 224.085938 C 215.757812 225.066406 214.515625 225.992188 213.226562 226.851562 C 211.9375 227.710938 210.609375 228.507812 209.242188 229.238281 C 207.875 229.96875 206.476562 230.632812 205.042969 231.226562 C 203.609375 231.816406 202.152344 232.339844 200.667969 232.789062 C 199.1875 233.238281 197.683594 233.617188 196.164062 233.917969 C 194.644531 234.21875 193.113281 234.449219 191.570312 234.601562 C 190.027344 234.75 188.480469 234.828125 186.929688 234.828125 C 185.382812 234.828125 183.835938 234.75 182.292969 234.601562 C 180.75 234.449219 179.21875 234.222656 177.699219 233.917969 C 176.175781 233.617188 174.675781 233.238281 173.191406 232.789062 C 171.710938 232.339844 170.25 231.816406 168.820312 231.226562 C 167.386719 230.632812 165.988281 229.96875 164.621094 229.238281 C 163.253906 228.507812 161.925781 227.710938 160.636719 226.851562 C 159.347656 225.992188 158.105469 225.066406 156.90625 224.085938 C 155.707031 223.101562 154.5625 222.0625 153.464844 220.964844 C 152.367188 219.871094 151.328125 218.722656 150.347656 217.523438 C 149.363281 216.324219 148.441406 215.082031 147.578125 213.792969 C 146.71875 212.503906 145.921875 211.175781 145.191406 209.808594 C 144.460938 208.441406 143.796875 207.042969 143.207031 205.609375 C 142.613281 204.179688 142.089844 202.722656 141.640625 201.238281 C 141.191406 199.753906 140.816406 198.253906 140.511719 196.734375 C 140.210938 195.210938 139.984375 193.679688 139.832031 192.136719 C 139.679688 190.597656 139.601562 189.050781 139.601562 187.5 C 139.601562 185.949219 139.679688 184.402344 139.832031 182.859375 C 139.984375 181.316406 140.210938 179.785156 140.511719 178.265625 C 140.816406 176.746094 141.191406 175.246094 141.640625 173.761719 C 142.089844 172.277344 142.613281 170.820312 143.207031 169.386719 C 143.796875 167.957031 144.460938 166.554688 145.191406 165.1875 C 145.921875 163.820312 146.71875 162.496094 147.578125 161.207031 C 148.441406 159.917969 149.363281 158.671875 150.347656 157.476562 C 151.328125 156.277344 152.367188 155.128906 153.464844 154.035156 C 154.5625 152.9375 155.707031 151.898438 156.90625 150.914062 C 158.105469 149.929688 159.347656 149.007812 160.636719 148.148438 C 161.925781 147.285156 163.253906 146.492188 164.621094 145.757812 C 165.988281 145.027344 167.386719 144.367188 168.820312 143.773438 C 170.25 143.179688 171.710938 142.660156 173.191406 142.210938 C 174.675781 141.757812 176.175781 141.382812 177.699219 141.082031 C 179.21875 140.777344 180.75 140.550781 182.292969 140.398438 C 183.835938 140.246094 185.382812 140.171875 186.929688 140.171875 C 188.480469 140.171875 190.027344 140.246094 191.570312 140.398438 C 193.113281 140.550781 194.644531 140.777344 196.164062 141.082031 C 197.683594 141.382812 199.1875 141.757812 200.667969 142.210938 C 202.152344 142.660156 203.609375 143.179688 205.042969 143.773438 C 206.476562 144.367188 207.875 145.027344 209.242188 145.757812 C 210.609375 146.492188 211.9375 147.285156 213.226562 148.148438 C 214.515625 149.007812 215.757812 149.929688 216.957031 150.914062 C 218.152344 151.898438 219.300781 152.9375 220.398438 154.035156 C 221.492188 155.128906 222.53125 156.277344 223.515625 157.476562 C 224.5 158.671875 225.421875 159.917969 226.28125 161.207031 C 227.144531 162.496094 227.941406 163.820312 228.671875 165.1875 C 229.402344 166.554688 230.0625 167.957031 230.65625 169.386719 C 231.25 170.820312 231.769531 172.277344 232.222656 173.761719 C 232.671875 175.246094 233.046875 176.746094 233.351562 178.265625 C 233.652344 179.785156 233.878906 181.316406 234.03125 182.859375 C 234.183594 184.402344 234.257812 185.949219 234.257812 187.5 Z M 234.257812 187.5 " fill-opacity="1" fill-rule="nonzero"/></svg>