<svg xmlns="http://www.w3.org/2000/svg" xmlns:xlink="http://www.w3.org/1999/xlink" width="500" zoomAndPan="magnify" viewBox="0 0 375 374.999991" height="500" preserveAspectRatio="xMidYMid meet" version="1.0"><defs><clipPath id="36f31f24d3"><path d="M 37.5 37.5 L 337.5 37.5 L 337.5 337.5 L 37.5 337.5 Z M 37.5 37.5 " clip-rule="nonzero"/></clipPath><clipPath id="b69b5313ef"><path d="M 109.363281 109.363281 L 265.363281 109.363281 L 265.363281 265.363281 L 109.363281 265.363281 Z M 109.363281 109.363281 " clip-rule="nonzero"/></clipPath></defs><g clip-path="url(#36f31f24d3)"><path fill="#ffffff" d="M 193.199219 181.828125 L 193.199219 37.5 L 181.828125 37.5 L 181.828125 181.828125 L 37.5 181.828125 L 37.5 193.199219 L 181.828125 193.199219 L 181.828125 337.5 L 193.199219 337.5 L 193.199219 193.199219 L 337.5 193.199219 L 337.5 181.828125 L 193.199219 181.828125 " fill-opacity="1" fill-rule="nonzero"/></g><g clip-path="url(#b69b5313ef)"><path fill="#ffffff" d="M 190.46875 184.542969 L 190.46875 109.363281 L 184.542969 109.363281 L 184.542969 184.542969 L 109.363281 184.542969 L 109.363281 190.46875 L 184.542969 190.46875 L 184.542969 265.632812 L 190.46875 265.632812 L 190.46875 190.46875 L 265.632812 190.46875 L 265.632812 184.542969 L 190.46875 184.542969 " fill-opacity="1" fill-rule="nonzero"/></g></svg>