<svg xmlns="http://www.w3.org/2000/svg" xmlns:xlink="http://www.w3.org/1999/xlink" width="500" zoomAndPan="magnify" viewBox="0 0 375 374.999991" height="500" preserveAspectRatio="xMidYMid meet" version="1.0"><defs><clipPath id="179adc8e73"><path d="M 90.246094 6.945312 L 284.582031 6.945312 L 284.582031 367.695312 L 90.246094 367.695312 Z M 90.246094 6.945312 " clip-rule="nonzero"/></clipPath><clipPath id="d53399f164"><path d="M 197.257812 112.5 L 277.800781 112.5 L 277.800781 262.5 L 197.257812 262.5 Z M 197.257812 112.5 " clip-rule="nonzero"/></clipPath></defs><g clip-path="url(#179adc8e73)"><path fill="#100f0d" d="M 120.863281 12.007812 C 113.679688 5.089844 102.234375 5.28125 95.3125 12.453125 C 88.546875 19.4375 88.546875 30.550781 95.3125 37.53125 L 245.246094 187.320312 L 95.3125 337.109375 C 88.386719 344.285156 88.578125 355.71875 95.761719 362.605469 C 102.75 369.363281 113.839844 369.394531 120.863281 362.636719 L 276.277344 207.371094 C 287.371094 196.289062 287.371094 178.355469 276.277344 167.273438 L 120.863281 12.007812 " fill-opacity="1" fill-rule="nonzero"/></g><g clip-path="url(#d53399f164)"><path fill="#100f0d" d="M 209.949219 114.605469 C 206.972656 111.726562 202.230469 111.808594 199.359375 114.789062 C 196.554688 117.695312 196.554688 122.3125 199.359375 125.21875 L 261.5 187.5 L 199.359375 249.78125 C 196.488281 252.765625 196.570312 257.519531 199.546875 260.382812 C 202.441406 263.191406 207.039062 263.207031 209.949219 260.394531 L 274.359375 195.835938 C 278.957031 191.230469 278.957031 183.769531 274.359375 179.164062 L 209.949219 114.605469 " fill-opacity="1" fill-rule="nonzero"/></g></svg>