<svg xmlns="http://www.w3.org/2000/svg" xmlns:xlink="http://www.w3.org/1999/xlink" width="500" zoomAndPan="magnify" viewBox="0 0 375 374.999991" height="500" preserveAspectRatio="xMidYMid meet" version="1.0"><defs><clipPath id="f657bcf80b"><path d="M 11.164062 91.316406 L 363.664062 91.316406 L 363.664062 283.316406 L 11.164062 283.316406 Z M 11.164062 91.316406 " clip-rule="nonzero"/></clipPath></defs><g clip-path="url(#f657bcf80b)"><path fill="#000000" d="M 358.984375 278.644531 C 356.085938 281.539062 352.078125 283.347656 347.640625 283.347656 C 343.203125 283.347656 339.195312 281.554688 336.296875 278.644531 L 187.414062 129.941406 L 38.53125 278.644531 C 35.628906 281.539062 31.609375 283.332031 27.1875 283.332031 C 18.324219 283.332031 11.148438 276.164062 11.148438 267.316406 C 11.148438 262.898438 12.941406 258.882812 15.84375 255.988281 L 176.070312 95.988281 C 178.96875 93.09375 182.976562 91.285156 187.414062 91.285156 C 191.851562 91.285156 195.859375 93.078125 198.757812 95.988281 L 358.984375 255.988281 C 361.886719 258.882812 363.695312 262.882812 363.695312 267.316406 C 363.695312 271.75 361.902344 275.75 358.984375 278.644531 Z M 358.984375 278.644531 " fill-opacity="1" fill-rule="nonzero"/></g></svg>