<svg xmlns="http://www.w3.org/2000/svg" xmlns:xlink="http://www.w3.org/1999/xlink" width="500" zoomAndPan="magnify" viewBox="0 0 375 374.999991" height="500" preserveAspectRatio="xMidYMid meet" version="1.0"><defs><clipPath id="510a61d2b0"><path d="M 15.78125 93.835938 L 359.28125 93.835938 L 359.28125 281.335938 L 15.78125 281.335938 Z M 15.78125 93.835938 " clip-rule="nonzero"/></clipPath><clipPath id="07cc4269a3"><path d="M 140.570312 105.5 L 234.320312 105.5 L 234.320312 156.5 L 140.570312 156.5 Z M 140.570312 105.5 " clip-rule="nonzero"/></clipPath></defs><path fill="#ffffff" d="M 177.574219 186.082031 L 177.574219 187.5 L 196.007812 187.5 L 196.007812 186.082031 Z M 177.574219 186.082031 " fill-opacity="1" fill-rule="nonzero"/><g clip-path="url(#510a61d2b0)"><path fill="#a6a6a6" d="M 354.652344 276.601562 C 351.824219 279.425781 347.921875 281.191406 343.597656 281.191406 C 339.273438 281.191406 335.371094 279.441406 332.546875 276.601562 L 187.496094 131.519531 L 42.445312 276.601562 C 39.617188 279.425781 35.699219 281.175781 31.390625 281.175781 C 22.761719 281.175781 15.765625 274.179688 15.765625 265.550781 C 15.765625 261.242188 17.515625 257.324219 20.339844 254.496094 L 176.445312 98.394531 C 179.269531 95.566406 183.171875 93.804688 187.496094 93.804688 C 191.820312 93.804688 195.722656 95.550781 198.546875 98.394531 L 354.652344 254.496094 C 357.476562 257.324219 359.242188 261.226562 359.242188 265.550781 C 359.242188 269.875 357.492188 273.777344 354.652344 276.601562 Z M 354.652344 276.601562 " fill-opacity="1" fill-rule="nonzero"/></g><g clip-path="url(#07cc4269a3)"><path fill="#a6a6a6" d="M 233.175781 155.441406 C 232.402344 156.214844 231.335938 156.695312 230.15625 156.695312 C 228.972656 156.695312 227.90625 156.21875 227.136719 155.441406 L 187.5 115.796875 L 147.863281 155.441406 C 147.089844 156.214844 146.019531 156.691406 144.84375 156.691406 C 142.484375 156.691406 140.574219 154.78125 140.574219 152.421875 C 140.574219 151.246094 141.050781 150.175781 141.824219 149.402344 L 184.480469 106.746094 C 185.25 105.972656 186.316406 105.492188 187.5 105.492188 C 188.679688 105.492188 189.746094 105.96875 190.519531 106.746094 L 233.175781 149.402344 C 233.949219 150.175781 234.429688 151.242188 234.429688 152.421875 C 234.429688 153.605469 233.953125 154.671875 233.175781 155.441406 Z M 233.175781 155.441406 " fill-opacity="1" fill-rule="nonzero"/></g></svg>