<svg xmlns="http://www.w3.org/2000/svg" xmlns:xlink="http://www.w3.org/1999/xlink" width="500" zoomAndPan="magnify" viewBox="0 0 375 374.999991" height="500" preserveAspectRatio="xMidYMid meet" version="1.0"><defs><clipPath id="9780985671"><path d="M 118 49.804688 L 257 49.804688 L 257 263 L 118 263 Z M 118 49.804688 " clip-rule="nonzero"/></clipPath><clipPath id="2d68f3ec98"><path d="M 49.804688 220 L 325.054688 220 L 325.054688 325.054688 L 49.804688 325.054688 Z M 49.804688 220 " clip-rule="nonzero"/></clipPath></defs><g clip-path="url(#9780985671)"><path fill="#ffffff" d="M 199.625 220.671875 L 199.625 61.933594 C 199.625 58.722656 198.378906 55.640625 196.085938 53.347656 C 193.789062 51.117188 190.707031 49.804688 187.496094 49.804688 C 184.28125 49.804688 181.199219 51.117188 178.90625 53.347656 C 176.609375 55.640625 175.367188 58.722656 175.367188 61.933594 L 175.367188 220.671875 C 175.367188 220.671875 152.21875 197.527344 139.304688 184.609375 C 137.007812 182.316406 133.925781 181.070312 130.714844 181.070312 C 127.5 181.070312 124.421875 182.316406 122.125 184.609375 C 117.40625 189.332031 117.40625 197.003906 122.125 201.722656 L 179.363281 258.960938 C 181.527344 261.125 184.414062 262.304688 187.496094 262.304688 C 190.578125 262.304688 193.460938 261.125 195.625 258.960938 L 252.863281 201.722656 C 257.585938 197.003906 257.585938 189.332031 252.863281 184.609375 C 250.570312 182.316406 247.488281 181.070312 244.277344 181.070312 C 241.0625 181.070312 237.980469 182.316406 235.6875 184.609375 C 222.703125 197.527344 199.625 220.671875 199.625 220.671875 Z M 199.625 220.671875 " fill-opacity="1" fill-rule="evenodd"/></g><g clip-path="url(#2d68f3ec98)"><path fill="#ffffff" d="M 49.804688 302.234375 C 49.804688 308.332031 52.230469 314.167969 56.558594 318.429688 C 60.886719 322.757812 66.722656 325.183594 72.753906 325.183594 L 302.234375 325.183594 C 308.332031 325.183594 314.167969 322.757812 318.429688 318.429688 C 322.757812 314.105469 325.183594 308.269531 325.183594 302.234375 L 325.183594 232.800781 C 325.183594 226.113281 319.742188 220.671875 313.054688 220.671875 C 309.84375 220.671875 306.761719 221.984375 304.464844 224.210938 C 302.171875 226.507812 300.925781 229.589844 300.925781 232.800781 L 300.925781 289.515625 C 300.925781 295.875 295.8125 300.992188 289.449219 300.992188 L 85.539062 300.992188 C 79.179688 300.992188 74.066406 295.875 74.066406 289.515625 L 74.066406 232.800781 C 74.066406 229.589844 72.753906 226.507812 70.523438 224.210938 C 68.230469 221.917969 65.148438 220.671875 61.933594 220.671875 C 55.246094 220.671875 49.804688 226.113281 49.804688 232.800781 Z M 49.804688 302.234375 " fill-opacity="1" fill-rule="evenodd"/></g></svg>