<svg xmlns="http://www.w3.org/2000/svg" xmlns:xlink="http://www.w3.org/1999/xlink" width="500" zoomAndPan="magnify" viewBox="0 0 375 374.999991" height="500" preserveAspectRatio="xMidYMid meet" version="1.0"><defs><clipPath id="a8544edc29"><path d="M 113 121.5 L 262 121.5 L 262 253.5 L 113 253.5 Z M 113 121.5 " clip-rule="nonzero"/></clipPath></defs><g clip-path="url(#a8544edc29)"><path fill="#ffffff" d="M 187.464844 121.5 C 186.121094 121.5 184.925781 121.929688 183.886719 122.785156 L 115.277344 179.203125 C 114.992188 179.4375 114.734375 179.699219 114.5 179.984375 C 114.261719 180.273438 114.058594 180.578125 113.886719 180.90625 C 113.710938 181.230469 113.570312 181.570312 113.464844 181.925781 C 113.355469 182.28125 113.285156 182.640625 113.25 183.011719 C 113.210938 183.378906 113.214844 183.746094 113.25 184.117188 C 113.285156 184.484375 113.359375 184.84375 113.464844 185.199219 C 113.574219 185.554688 113.714844 185.894531 113.890625 186.21875 C 114.066406 186.546875 114.269531 186.851562 114.503906 187.136719 C 114.742188 187.425781 115 187.683594 115.289062 187.917969 C 115.574219 188.152344 115.878906 188.359375 116.207031 188.53125 C 116.535156 188.707031 116.875 188.847656 117.226562 188.953125 C 117.582031 189.0625 117.945312 189.132812 118.3125 189.167969 C 118.679688 189.203125 119.050781 189.203125 119.417969 189.167969 C 119.785156 189.128906 120.148438 189.058594 120.5 188.949219 C 120.855469 188.84375 121.195312 188.703125 121.523438 188.527344 C 121.847656 188.351562 122.152344 188.148438 122.441406 187.910156 L 187.464844 134.4375 L 252.496094 187.910156 C 252.78125 188.148438 253.085938 188.351562 253.414062 188.527344 C 253.738281 188.703125 254.078125 188.84375 254.433594 188.949219 C 254.789062 189.058594 255.148438 189.128906 255.515625 189.167969 C 255.886719 189.203125 256.253906 189.203125 256.621094 189.167969 C 256.992188 189.132812 257.351562 189.0625 257.707031 188.953125 C 258.0625 188.847656 258.402344 188.707031 258.726562 188.53125 C 259.054688 188.359375 259.359375 188.152344 259.648438 187.917969 C 259.933594 187.683594 260.195312 187.425781 260.429688 187.136719 C 260.664062 186.851562 260.871094 186.546875 261.042969 186.21875 C 261.21875 185.894531 261.359375 185.554688 261.46875 185.199219 C 261.574219 184.84375 261.648438 184.484375 261.683594 184.117188 C 261.722656 183.746094 261.722656 183.378906 261.6875 183.011719 C 261.648438 182.640625 261.578125 182.28125 261.472656 181.925781 C 261.363281 181.570312 261.222656 181.230469 261.050781 180.90625 C 260.875 180.578125 260.671875 180.273438 260.4375 179.984375 C 260.203125 179.699219 259.941406 179.4375 259.65625 179.203125 L 191.046875 122.785156 C 190.007812 121.929688 188.8125 121.5 187.464844 121.5 Z M 187.46875 148.160156 C 186.121094 148.160156 184.925781 148.589844 183.886719 149.445312 L 131.132812 192.824219 C 130.484375 193.359375 129.976562 194.011719 129.617188 194.773438 C 129.257812 195.535156 129.078125 196.335938 129.078125 197.179688 L 129.078125 247.882812 C 129.078125 248.253906 129.113281 248.621094 129.1875 248.984375 C 129.257812 249.347656 129.363281 249.699219 129.507812 250.039062 C 129.648438 250.382812 129.820312 250.707031 130.027344 251.015625 C 130.234375 251.324219 130.46875 251.609375 130.730469 251.871094 C 130.992188 252.132812 131.277344 252.363281 131.582031 252.570312 C 131.890625 252.777344 132.214844 252.949219 132.558594 253.089844 C 132.898438 253.234375 133.253906 253.339844 133.617188 253.414062 C 133.976562 253.484375 134.34375 253.519531 134.714844 253.519531 L 171.929688 253.519531 C 172.296875 253.519531 172.664062 253.484375 173.027344 253.414062 C 173.390625 253.339844 173.742188 253.234375 174.085938 253.089844 C 174.425781 252.949219 174.753906 252.777344 175.058594 252.570312 C 175.367188 252.363281 175.652344 252.132812 175.914062 251.871094 C 176.175781 251.609375 176.410156 251.324219 176.613281 251.015625 C 176.820312 250.707031 176.996094 250.382812 177.136719 250.039062 C 177.277344 249.699219 177.382812 249.347656 177.457031 248.984375 C 177.527344 248.621094 177.566406 248.253906 177.566406 247.882812 L 177.566406 209.496094 L 197.371094 209.496094 L 197.371094 247.882812 C 197.371094 248.253906 197.40625 248.621094 197.476562 248.984375 C 197.550781 249.347656 197.65625 249.699219 197.796875 250.039062 C 197.941406 250.382812 198.113281 250.707031 198.320312 251.015625 C 198.523438 251.324219 198.757812 251.609375 199.019531 251.871094 C 199.28125 252.132812 199.566406 252.363281 199.875 252.570312 C 200.183594 252.777344 200.507812 252.949219 200.847656 253.089844 C 201.191406 253.234375 201.542969 253.339844 201.90625 253.414062 C 202.269531 253.484375 202.636719 253.519531 203.007812 253.519531 L 240.21875 253.519531 C 240.589844 253.519531 240.957031 253.484375 241.320312 253.414062 C 241.683594 253.339844 242.035156 253.234375 242.375 253.089844 C 242.71875 252.949219 243.042969 252.777344 243.351562 252.570312 C 243.660156 252.363281 243.945312 252.132812 244.207031 251.871094 C 244.46875 251.609375 244.703125 251.324219 244.90625 251.015625 C 245.113281 250.707031 245.285156 250.382812 245.429688 250.039062 C 245.570312 249.699219 245.675781 249.347656 245.75 248.984375 C 245.820312 248.621094 245.855469 248.253906 245.855469 247.882812 L 245.855469 197.179688 C 245.855469 196.335938 245.675781 195.535156 245.316406 194.773438 C 244.957031 194.011719 244.453125 193.359375 243.800781 192.824219 L 191.046875 149.445312 C 190.007812 148.589844 188.816406 148.160156 187.46875 148.160156 Z M 187.46875 148.160156 " fill-opacity="1" fill-rule="nonzero"/></g></svg>