<svg xmlns="http://www.w3.org/2000/svg" xmlns:xlink="http://www.w3.org/1999/xlink" width="500" zoomAndPan="magnify" viewBox="0 0 375 374.999991" height="500" preserveAspectRatio="xMidYMid meet" version="1.0"><defs><clipPath id="39cca1fe16"><path d="M 90.179688 89.46875 L 225 89.46875 L 225 275.464844 L 90.179688 275.464844 Z M 90.179688 89.46875 " clip-rule="nonzero"/></clipPath><clipPath id="6ff4dd0050"><path d="M 131 141 L 297.179688 141 L 297.179688 225 L 131 225 Z M 131 141 " clip-rule="nonzero"/></clipPath></defs><g clip-path="url(#39cca1fe16)"><path fill="#ffffff" d="M 193.679688 275.769531 L 121.230469 275.769531 C 120.210938 275.769531 119.199219 275.71875 118.1875 275.617188 C 117.175781 275.515625 116.171875 275.367188 115.171875 275.167969 C 114.175781 274.96875 113.191406 274.722656 112.21875 274.425781 C 111.246094 274.128906 110.289062 273.785156 109.351562 273.398438 C 108.410156 273.007812 107.496094 272.574219 106.597656 272.09375 C 105.703125 271.613281 104.832031 271.089844 103.984375 270.527344 C 103.140625 269.960938 102.324219 269.355469 101.539062 268.710938 C 100.753906 268.066406 100 267.382812 99.28125 266.664062 C 98.5625 265.945312 97.882812 265.195312 97.234375 264.410156 C 96.589844 263.621094 95.984375 262.808594 95.421875 261.960938 C 94.855469 261.117188 94.332031 260.246094 93.855469 259.351562 C 93.375 258.453125 92.941406 257.535156 92.550781 256.597656 C 92.160156 255.65625 91.816406 254.703125 91.523438 253.730469 C 91.226562 252.757812 90.980469 251.773438 90.78125 250.773438 C 90.582031 249.777344 90.429688 248.773438 90.332031 247.761719 C 90.230469 246.75 90.179688 245.734375 90.179688 244.71875 L 90.179688 120.519531 C 90.179688 119.503906 90.230469 118.488281 90.332031 117.476562 C 90.429688 116.464844 90.582031 115.460938 90.78125 114.464844 C 90.980469 113.464844 91.226562 112.480469 91.523438 111.507812 C 91.816406 110.535156 92.160156 109.582031 92.550781 108.640625 C 92.941406 107.703125 93.375 106.785156 93.855469 105.886719 C 94.332031 104.992188 94.855469 104.121094 95.421875 103.277344 C 95.984375 102.429688 96.589844 101.617188 97.234375 100.828125 C 97.882812 100.042969 98.5625 99.292969 99.28125 98.574219 C 100 97.855469 100.753906 97.171875 101.539062 96.527344 C 102.324219 95.882812 103.140625 95.277344 103.984375 94.710938 C 104.832031 94.148438 105.703125 93.625 106.597656 93.144531 C 107.496094 92.664062 108.410156 92.230469 109.351562 91.839844 C 110.289062 91.453125 111.246094 91.109375 112.21875 90.8125 C 113.191406 90.515625 114.175781 90.269531 115.171875 90.070312 C 116.171875 89.871094 117.175781 89.722656 118.1875 89.621094 C 119.199219 89.519531 120.210938 89.46875 121.230469 89.46875 L 193.679688 89.46875 C 194.695312 89.46875 195.710938 89.519531 196.722656 89.621094 C 197.734375 89.722656 198.738281 89.871094 199.734375 90.070312 C 200.730469 90.269531 201.714844 90.515625 202.6875 90.8125 C 203.660156 91.109375 204.617188 91.453125 205.554688 91.839844 C 206.496094 92.230469 207.414062 92.664062 208.308594 93.144531 C 209.207031 93.625 210.078125 94.148438 210.921875 94.710938 C 211.765625 95.277344 212.582031 95.882812 213.367188 96.527344 C 214.152344 97.171875 214.90625 97.855469 215.625 98.574219 C 216.34375 99.292969 217.027344 100.042969 217.671875 100.828125 C 218.316406 101.617188 218.921875 102.429688 219.484375 103.277344 C 220.050781 104.121094 220.574219 104.992188 221.054688 105.886719 C 221.53125 106.785156 221.96875 107.703125 222.355469 108.640625 C 222.746094 109.582031 223.089844 110.535156 223.382812 111.507812 C 223.679688 112.480469 223.929688 113.464844 224.125 114.464844 C 224.324219 115.460938 224.476562 116.464844 224.578125 117.476562 C 224.675781 118.488281 224.726562 119.503906 224.730469 120.519531 L 224.730469 141.21875 C 224.730469 141.898438 224.664062 142.570312 224.53125 143.238281 C 224.398438 143.90625 224.199219 144.550781 223.941406 145.179688 C 223.679688 145.808594 223.363281 146.402344 222.984375 146.96875 C 222.605469 147.535156 222.175781 148.058594 221.695312 148.539062 C 221.214844 149.019531 220.695312 149.449219 220.128906 149.824219 C 219.5625 150.203125 218.96875 150.519531 218.339844 150.78125 C 217.710938 151.042969 217.0625 151.238281 216.398438 151.371094 C 215.730469 151.503906 215.058594 151.570312 214.378906 151.570312 C 213.699219 151.570312 213.027344 151.503906 212.359375 151.371094 C 211.691406 151.238281 211.046875 151.042969 210.417969 150.78125 C 209.789062 150.519531 209.195312 150.203125 208.628906 149.824219 C 208.0625 149.449219 207.539062 149.019531 207.058594 148.539062 C 206.578125 148.058594 206.148438 147.535156 205.773438 146.96875 C 205.394531 146.402344 205.078125 145.808594 204.816406 145.179688 C 204.554688 144.550781 204.359375 143.90625 204.226562 143.238281 C 204.09375 142.570312 204.027344 141.898438 204.027344 141.21875 L 204.027344 120.519531 C 204.027344 119.839844 203.960938 119.167969 203.828125 118.5 C 203.695312 117.832031 203.5 117.1875 203.242188 116.558594 C 202.980469 115.929688 202.660156 115.335938 202.285156 114.769531 C 201.90625 114.203125 201.476562 113.679688 200.996094 113.199219 C 200.515625 112.71875 199.992188 112.289062 199.429688 111.914062 C 198.863281 111.535156 198.265625 111.21875 197.640625 110.957031 C 197.011719 110.695312 196.363281 110.5 195.699219 110.367188 C 195.03125 110.234375 194.359375 110.167969 193.679688 110.167969 L 121.230469 110.167969 C 120.550781 110.167969 119.875 110.234375 119.210938 110.367188 C 118.542969 110.5 117.894531 110.695312 117.269531 110.957031 C 116.640625 111.21875 116.042969 111.535156 115.476562 111.914062 C 114.914062 112.289062 114.390625 112.71875 113.910156 113.199219 C 113.429688 113.679688 113 114.203125 112.621094 114.769531 C 112.246094 115.335938 111.925781 115.929688 111.667969 116.558594 C 111.40625 117.1875 111.210938 117.832031 111.078125 118.5 C 110.945312 119.167969 110.878906 119.839844 110.878906 120.519531 L 110.878906 244.71875 C 110.878906 245.398438 110.945312 246.070312 111.078125 246.738281 C 111.210938 247.40625 111.40625 248.050781 111.667969 248.679688 C 111.925781 249.308594 112.246094 249.902344 112.621094 250.46875 C 113 251.035156 113.429688 251.558594 113.910156 252.039062 C 114.390625 252.519531 114.914062 252.945312 115.476562 253.324219 C 116.042969 253.703125 116.640625 254.019531 117.269531 254.28125 C 117.894531 254.542969 118.542969 254.738281 119.210938 254.871094 C 119.875 255.003906 120.550781 255.070312 121.230469 255.070312 L 193.679688 255.070312 C 194.359375 255.070312 195.03125 255.003906 195.699219 254.871094 C 196.363281 254.738281 197.011719 254.542969 197.640625 254.28125 C 198.265625 254.019531 198.863281 253.703125 199.429688 253.324219 C 199.992188 252.949219 200.515625 252.519531 200.996094 252.039062 C 201.476562 251.558594 201.90625 251.035156 202.285156 250.46875 C 202.660156 249.902344 202.980469 249.308594 203.242188 248.679688 C 203.5 248.050781 203.695312 247.40625 203.828125 246.738281 C 203.960938 246.070312 204.027344 245.398438 204.027344 244.71875 L 204.027344 224.019531 C 204.027344 223.339844 204.09375 222.667969 204.226562 222 C 204.359375 221.332031 204.554688 220.6875 204.816406 220.058594 C 205.078125 219.429688 205.394531 218.835938 205.773438 218.269531 C 206.148438 217.703125 206.578125 217.179688 207.058594 216.699219 C 207.539062 216.21875 208.0625 215.789062 208.628906 215.414062 C 209.195312 215.035156 209.789062 214.71875 210.417969 214.457031 C 211.046875 214.195312 211.691406 214 212.359375 213.867188 C 213.027344 213.734375 213.699219 213.667969 214.378906 213.667969 C 215.058594 213.667969 215.730469 213.734375 216.398438 213.867188 C 217.0625 214 217.710938 214.195312 218.339844 214.457031 C 218.96875 214.71875 219.5625 215.035156 220.128906 215.414062 C 220.695312 215.789062 221.214844 216.21875 221.695312 216.699219 C 222.175781 217.179688 222.605469 217.703125 222.984375 218.269531 C 223.363281 218.835938 223.679688 219.429688 223.941406 220.058594 C 224.199219 220.6875 224.398438 221.332031 224.53125 222 C 224.664062 222.667969 224.730469 223.339844 224.730469 224.019531 L 224.730469 244.71875 C 224.726562 245.734375 224.675781 246.75 224.578125 247.761719 C 224.476562 248.773438 224.324219 249.777344 224.125 250.773438 C 223.929688 251.773438 223.679688 252.757812 223.382812 253.730469 C 223.089844 254.703125 222.746094 255.65625 222.355469 256.597656 C 221.96875 257.535156 221.53125 258.453125 221.054688 259.351562 C 220.574219 260.246094 220.050781 261.117188 219.484375 261.960938 C 218.921875 262.808594 218.316406 263.621094 217.671875 264.410156 C 217.027344 265.195312 216.34375 265.945312 215.625 266.664062 C 214.90625 267.382812 214.152344 268.066406 213.367188 268.710938 C 212.582031 269.355469 211.765625 269.960938 210.921875 270.527344 C 210.078125 271.089844 209.207031 271.613281 208.308594 272.09375 C 207.414062 272.574219 206.496094 273.007812 205.554688 273.398438 C 204.617188 273.785156 203.660156 274.128906 202.6875 274.425781 C 201.714844 274.722656 200.730469 274.96875 199.734375 275.167969 C 198.738281 275.367188 197.734375 275.515625 196.722656 275.617188 C 195.710938 275.71875 194.695312 275.769531 193.679688 275.769531 Z M 193.679688 275.769531 " fill-opacity="1" fill-rule="nonzero"/></g><g clip-path="url(#6ff4dd0050)"><path fill="#ffffff" d="M 255.777344 224.019531 C 254.753906 224.019531 253.753906 223.871094 252.773438 223.574219 C 251.796875 223.277344 250.878906 222.84375 250.03125 222.273438 C 249.179688 221.707031 248.429688 221.027344 247.78125 220.234375 C 247.128906 219.445312 246.609375 218.574219 246.21875 217.628906 C 245.828125 216.683594 245.582031 215.703125 245.480469 214.683594 C 245.378906 213.664062 245.429688 212.652344 245.628906 211.652344 C 245.828125 210.648438 246.171875 209.695312 246.652344 208.792969 C 247.132812 207.886719 247.738281 207.074219 248.460938 206.351562 L 261.84375 192.96875 L 141.929688 192.96875 C 141.25 192.96875 140.574219 192.902344 139.910156 192.769531 C 139.242188 192.636719 138.59375 192.441406 137.96875 192.179688 C 137.339844 191.921875 136.742188 191.601562 136.179688 191.226562 C 135.613281 190.847656 135.089844 190.417969 134.609375 189.9375 C 134.128906 189.457031 133.699219 188.933594 133.324219 188.371094 C 132.945312 187.804688 132.625 187.207031 132.367188 186.578125 C 132.105469 185.953125 131.910156 185.304688 131.777344 184.636719 C 131.644531 183.972656 131.578125 183.296875 131.578125 182.621094 C 131.578125 181.941406 131.644531 181.265625 131.777344 180.601562 C 131.910156 179.933594 132.105469 179.285156 132.367188 178.660156 C 132.625 178.03125 132.945312 177.433594 133.324219 176.867188 C 133.699219 176.304688 134.128906 175.78125 134.609375 175.300781 C 135.089844 174.820312 135.613281 174.390625 136.179688 174.011719 C 136.742188 173.636719 137.339844 173.316406 137.96875 173.058594 C 138.59375 172.796875 139.242188 172.601562 139.910156 172.46875 C 140.574219 172.335938 141.25 172.269531 141.929688 172.269531 L 261.84375 172.269531 L 248.460938 158.886719 C 247.996094 158.402344 247.578125 157.878906 247.214844 157.316406 C 246.847656 156.75 246.542969 156.15625 246.292969 155.53125 C 246.042969 154.90625 245.855469 154.265625 245.734375 153.605469 C 245.609375 152.945312 245.550781 152.277344 245.554688 151.605469 C 245.5625 150.933594 245.632812 150.269531 245.769531 149.609375 C 245.902344 148.953125 246.101562 148.3125 246.359375 147.695312 C 246.621094 147.074219 246.9375 146.484375 247.3125 145.925781 C 247.6875 145.371094 248.113281 144.851562 248.585938 144.378906 C 249.0625 143.902344 249.578125 143.476562 250.136719 143.101562 C 250.695312 142.730469 251.285156 142.410156 251.902344 142.152344 C 252.523438 141.890625 253.164062 141.695312 253.820312 141.558594 C 254.480469 141.421875 255.144531 141.351562 255.816406 141.347656 C 256.488281 141.339844 257.152344 141.398438 257.816406 141.523438 C 258.476562 141.648438 259.117188 141.835938 259.742188 142.082031 C 260.367188 142.332031 260.960938 142.640625 261.523438 143.003906 C 262.089844 143.367188 262.613281 143.785156 263.097656 144.25 L 294.144531 175.300781 C 295.035156 176.179688 295.738281 177.1875 296.261719 178.320312 C 296.78125 179.453125 297.089844 180.644531 297.179688 181.890625 C 297.230469 182.582031 297.210938 183.273438 297.117188 183.960938 C 296.855469 185.996094 296.054688 187.792969 294.714844 189.351562 C 294.519531 189.574219 294.320312 189.785156 294.113281 189.992188 L 263.121094 220.980469 C 262.148438 221.957031 261.027344 222.710938 259.753906 223.234375 C 258.480469 223.761719 257.15625 224.023438 255.777344 224.019531 Z M 255.777344 224.019531 " fill-opacity="1" fill-rule="nonzero"/></g></svg>