<svg xmlns="http://www.w3.org/2000/svg" xmlns:xlink="http://www.w3.org/1999/xlink" width="500" zoomAndPan="magnify" viewBox="0 0 375 374.999991" height="500" preserveAspectRatio="xMidYMid meet" version="1.0"><defs><clipPath id="5672a886f9"><path d="M 24.082031 31 L 350 31 L 350 356.089844 L 24.082031 356.089844 Z M 24.082031 31 " clip-rule="nonzero"/></clipPath></defs><g clip-path="url(#5672a886f9)"><path fill="#006daa" d="M 79.734375 86.527344 C 99.445312 66.816406 125.347656 56.960938 151.234375 56.960938 C 177.132812 56.960938 203.035156 66.816406 222.746094 86.527344 C 262.167969 125.964844 262.167969 190.121094 222.746094 229.542969 C 203.644531 248.644531 178.25 259.15625 151.234375 259.15625 C 124.226562 259.15625 98.835938 248.644531 79.734375 229.542969 C 60.628906 210.433594 50.117188 185.046875 50.117188 158.039062 C 50.117188 131.023438 60.628906 105.628906 79.734375 86.527344 Z M 151.234375 285.132812 C 180.820312 285.132812 208.84375 275.085938 231.457031 256.613281 L 327.476562 352.652344 C 330.011719 355.1875 333.339844 356.457031 336.660156 356.457031 C 339.984375 356.457031 343.308594 355.1875 345.847656 352.652344 C 350.921875 347.578125 350.921875 339.355469 345.847656 334.289062 L 249.832031 238.257812 C 290.472656 188.394531 287.566406 114.628906 241.109375 68.160156 C 191.542969 18.613281 110.914062 18.613281 61.363281 68.160156 C 37.355469 92.167969 24.140625 124.082031 24.140625 158.039062 C 24.140625 191.980469 37.355469 223.90625 61.363281 247.90625 C 85.367188 271.917969 117.289062 285.132812 151.234375 285.132812 " fill-opacity="1" fill-rule="nonzero"/></g></svg>