<svg xmlns="http://www.w3.org/2000/svg" xmlns:xlink="http://www.w3.org/1999/xlink" width="500" zoomAndPan="magnify" viewBox="0 0 375 374.999991" height="500" preserveAspectRatio="xMidYMid meet" version="1.0"><defs><clipPath id="4d2c7c7722"><path d="M 16.125 16.125 L 358.875 16.125 L 358.875 358.875 L 16.125 358.875 Z M 16.125 16.125 " clip-rule="nonzero"/></clipPath><clipPath id="06b500c2b5"><path d="M 65.023438 158.667969 L 83.773438 158.667969 L 83.773438 177.417969 L 65.023438 177.417969 Z M 65.023438 158.667969 " clip-rule="nonzero"/></clipPath></defs><path fill="#ebebeb" d="M 186.890625 149.429688 L 148.972656 111.511719 C 138.46875 101.007812 121.414062 101.007812 110.910156 111.511719 C 100.40625 122.015625 100.40625 139.070312 110.910156 149.574219 L 148.824219 187.492188 L 110.910156 225.410156 C 100.40625 235.914062 100.40625 252.96875 110.910156 263.472656 C 121.414062 273.976562 138.46875 273.976562 148.972656 263.472656 L 186.890625 225.558594 L 224.808594 263.472656 C 235.3125 273.976562 252.367188 273.976562 262.871094 263.472656 C 273.375 252.96875 273.375 235.914062 262.871094 225.410156 L 224.953125 187.492188 L 262.871094 149.574219 C 273.375 139.070312 273.375 122.015625 262.871094 111.511719 C 252.367188 101.007812 235.3125 101.007812 224.808594 111.511719 Z M 186.890625 149.429688 " fill-opacity="1" fill-rule="evenodd"/><g clip-path="url(#4d2c7c7722)"><path fill="#bb0000" d="M 108.125 49.613281 C 122.453125 50.011719 136.273438 44.289062 146.121094 33.878906 C 156.527344 22.941406 171.222656 16.125 187.492188 16.125 C 203.765625 16.125 218.460938 22.941406 228.867188 33.878906 C 238.714844 44.289062 252.535156 50.011719 266.859375 49.613281 C 281.953125 49.242188 297.164062 54.8125 308.667969 66.316406 C 320.175781 77.824219 325.746094 93.035156 325.371094 108.125 C 324.972656 122.453125 330.695312 136.269531 341.109375 146.121094 C 352.042969 156.527344 358.863281 171.222656 358.863281 187.492188 C 358.863281 203.765625 352.042969 218.457031 341.109375 228.867188 C 330.695312 238.714844 324.972656 252.535156 325.371094 266.859375 C 325.746094 281.953125 320.175781 297.164062 308.667969 308.667969 C 297.164062 320.175781 281.953125 325.742188 266.859375 325.371094 C 252.535156 324.972656 238.714844 330.695312 228.867188 341.113281 C 218.460938 352.039062 203.765625 358.863281 187.492188 358.863281 C 171.222656 358.863281 156.527344 352.039062 146.121094 341.113281 C 136.273438 330.695312 122.453125 324.972656 108.125 325.371094 C 93.035156 325.742188 77.824219 320.175781 66.316406 308.667969 C 54.8125 297.164062 49.242188 281.953125 49.613281 266.859375 C 50.015625 252.535156 44.289062 238.714844 33.878906 228.867188 C 22.941406 218.457031 16.125 203.765625 16.125 187.492188 C 16.125 171.222656 22.941406 156.527344 33.878906 146.121094 C 44.289062 136.269531 50.015625 122.453125 49.613281 108.125 C 49.242188 93.035156 54.8125 77.824219 66.316406 66.316406 C 77.824219 54.8125 93.035156 49.242188 108.125 49.613281 Z M 186.890625 149.429688 L 148.972656 111.511719 C 138.46875 101.007812 121.414062 101.007812 110.910156 111.511719 C 100.40625 122.015625 100.40625 139.070312 110.910156 149.574219 L 148.824219 187.492188 L 110.910156 225.410156 C 100.40625 235.914062 100.40625 252.96875 110.910156 263.472656 C 121.414062 273.976562 138.46875 273.976562 148.972656 263.472656 L 186.890625 225.558594 L 224.804688 263.472656 C 235.308594 273.976562 252.367188 273.976562 262.871094 263.472656 C 273.375 252.96875 273.375 235.914062 262.871094 225.410156 L 224.953125 187.492188 L 262.871094 149.574219 C 273.375 139.070312 273.375 122.015625 262.871094 111.511719 C 252.367188 101.007812 235.308594 101.007812 224.804688 111.511719 Z M 186.890625 149.429688 " fill-opacity="1" fill-rule="evenodd"/></g><g clip-path="url(#06b500c2b5)"><path fill="#bb0000" d="M 83.703125 168.007812 C 83.703125 168.621094 83.644531 169.226562 83.523438 169.828125 C 83.40625 170.429688 83.226562 171.011719 82.992188 171.582031 C 82.757812 172.148438 82.46875 172.683594 82.128906 173.195312 C 81.789062 173.703125 81.402344 174.175781 80.96875 174.609375 C 80.535156 175.042969 80.0625 175.429688 79.550781 175.773438 C 79.042969 176.113281 78.503906 176.398438 77.9375 176.636719 C 77.371094 176.871094 76.789062 177.046875 76.1875 177.167969 C 75.585938 177.285156 74.976562 177.347656 74.363281 177.347656 C 73.75 177.347656 73.144531 177.285156 72.542969 177.167969 C 71.941406 177.046875 71.355469 176.871094 70.789062 176.636719 C 70.222656 176.398438 69.683594 176.113281 69.175781 175.773438 C 68.664062 175.429688 68.191406 175.042969 67.757812 174.609375 C 67.324219 174.175781 66.9375 173.703125 66.597656 173.195312 C 66.257812 172.683594 65.96875 172.148438 65.734375 171.582031 C 65.5 171.011719 65.324219 170.429688 65.203125 169.828125 C 65.082031 169.226562 65.023438 168.621094 65.023438 168.007812 C 65.023438 167.394531 65.082031 166.785156 65.203125 166.183594 C 65.324219 165.582031 65.5 165 65.734375 164.433594 C 65.96875 163.863281 66.257812 163.328125 66.597656 162.816406 C 66.9375 162.308594 67.324219 161.835938 67.757812 161.402344 C 68.191406 160.96875 68.664062 160.582031 69.175781 160.238281 C 69.683594 159.898438 70.222656 159.613281 70.789062 159.378906 C 71.355469 159.140625 71.941406 158.964844 72.542969 158.84375 C 73.144531 158.726562 73.75 158.667969 74.363281 158.667969 C 74.976562 158.667969 75.585938 158.726562 76.1875 158.84375 C 76.789062 158.964844 77.371094 159.140625 77.9375 159.378906 C 78.503906 159.613281 79.042969 159.898438 79.550781 160.238281 C 80.0625 160.582031 80.535156 160.96875 80.96875 161.402344 C 81.402344 161.835938 81.789062 162.308594 82.128906 162.816406 C 82.46875 163.328125 82.757812 163.863281 82.992188 164.433594 C 83.226562 165 83.40625 165.582031 83.523438 166.183594 C 83.644531 166.785156 83.703125 167.394531 83.703125 168.007812 Z M 83.703125 168.007812 " fill-opacity="1" fill-rule="nonzero"/></g></svg>