<svg xmlns="http://www.w3.org/2000/svg" xmlns:xlink="http://www.w3.org/1999/xlink" width="500" zoomAndPan="magnify" viewBox="0 0 375 374.999991" height="500" preserveAspectRatio="xMidYMid meet" version="1.0"><defs><clipPath id="626ad1db3e"><path d="M 6 25 L 359.832031 25 L 359.832031 365 L 6 365 Z M 6 25 " clip-rule="nonzero"/></clipPath><clipPath id="1a05878e3c"><path d="M 136.847656 129.207031 L 176.15625 129.207031 L 176.15625 168.515625 L 136.847656 168.515625 Z M 136.847656 129.207031 " clip-rule="nonzero"/></clipPath><clipPath id="a2048b5eb8"><path d="M 156.5 129.207031 C 145.648438 129.207031 136.847656 138.007812 136.847656 148.863281 C 136.847656 159.71875 145.648438 168.515625 156.5 168.515625 C 167.355469 168.515625 176.15625 159.71875 176.15625 148.863281 C 176.15625 138.007812 167.355469 129.207031 156.5 129.207031 Z M 156.5 129.207031 " clip-rule="nonzero"/></clipPath></defs><path fill="#ffffff" d="M 177.574219 186.082031 L 177.574219 187.5 L 196.007812 187.5 L 196.007812 186.082031 Z M 177.574219 186.082031 " fill-opacity="1" fill-rule="nonzero"/><g clip-path="url(#626ad1db3e)"><path fill="#32b744" d="M 359.59375 195.019531 C 359.59375 213.140625 339.261719 227.824219 333.960938 244.175781 C 328.464844 261.121094 336.097656 284.921875 325.839844 299.027344 C 315.484375 313.273438 290.441406 313.3125 276.207031 323.679688 C 262.117188 333.941406 254.398438 357.832031 237.46875 363.332031 C 221.132812 368.640625 200.933594 354.03125 182.832031 354.03125 C 164.730469 354.03125 144.53125 368.640625 128.195312 363.328125 C 111.265625 357.828125 103.546875 333.941406 89.457031 323.675781 C 75.222656 313.308594 50.179688 313.269531 39.824219 299.023438 C 29.566406 284.921875 37.203125 261.117188 31.703125 244.171875 C 26.402344 227.820312 6.070312 213.140625 6.070312 195.019531 C 6.070312 176.898438 26.402344 162.214844 31.703125 145.863281 C 37.199219 128.917969 29.566406 105.117188 39.824219 91.011719 C 50.179688 76.765625 75.222656 76.726562 89.457031 66.359375 C 103.546875 56.097656 111.265625 32.210938 128.195312 26.707031 C 144.53125 21.398438 164.730469 36.007812 182.832031 36.007812 C 200.933594 36.007812 221.132812 21.398438 237.46875 26.710938 C 254.398438 32.210938 262.117188 56.097656 276.207031 66.363281 C 290.441406 76.730469 315.484375 76.769531 325.839844 91.015625 C 336.097656 105.117188 328.460938 128.921875 333.960938 145.867188 C 339.261719 162.21875 359.59375 176.898438 359.59375 195.019531 Z M 359.59375 195.019531 " fill-opacity="1" fill-rule="nonzero"/></g><path fill="#ffffff" d="M 154.863281 248.804688 C 154.667969 248.804688 154.472656 248.800781 154.277344 248.792969 C 150.953125 248.625 147.851562 247.0625 145.746094 244.484375 L 117.777344 210.300781 C 113.652344 205.261719 114.390625 197.832031 119.425781 193.703125 C 124.460938 189.578125 131.886719 190.316406 136.007812 195.355469 L 155.734375 219.460938 L 230.4375 144.691406 C 235.042969 140.082031 242.503906 140.085938 247.101562 144.691406 C 251.707031 149.292969 251.707031 156.761719 247.101562 161.367188 L 163.195312 245.351562 C 160.980469 247.570312 157.980469 248.804688 154.863281 248.804688 Z M 154.863281 248.804688 " fill-opacity="1" fill-rule="nonzero"/><g clip-path="url(#1a05878e3c)"><g clip-path="url(#a2048b5eb8)"><path fill="#32b744" d="M 136.847656 129.207031 L 176.15625 129.207031 L 176.15625 168.515625 L 136.847656 168.515625 Z M 136.847656 129.207031 " fill-opacity="1" fill-rule="nonzero"/></g></g></svg>