<svg xmlns="http://www.w3.org/2000/svg" xmlns:xlink="http://www.w3.org/1999/xlink" width="500" zoomAndPan="magnify" viewBox="0 0 375 374.999991" height="500" preserveAspectRatio="xMidYMid meet" version="1.0"><defs><clipPath id="e00b0bb978"><path d="M 83.992188 74.097656 L 290.992188 74.097656 L 290.992188 300.597656 L 83.992188 300.597656 Z M 83.992188 74.097656 " clip-rule="nonzero"/></clipPath></defs><g clip-path="url(#e00b0bb978)"><path fill="#ffffff" d="M 281.148438 113.566406 L 236.789062 113.566406 L 236.789062 106.617188 C 236.785156 105.550781 236.730469 104.492188 236.625 103.433594 C 236.519531 102.375 236.363281 101.324219 236.15625 100.28125 C 235.945312 99.238281 235.6875 98.210938 235.378906 97.191406 C 235.066406 96.175781 234.710938 95.175781 234.300781 94.195312 C 233.894531 93.210938 233.441406 92.25 232.9375 91.3125 C 232.4375 90.375 231.890625 89.464844 231.296875 88.582031 C 230.707031 87.699219 230.074219 86.84375 229.398438 86.023438 C 228.726562 85.203125 228.011719 84.414062 227.257812 83.664062 C 226.507812 82.910156 225.722656 82.199219 224.898438 81.523438 C 224.078125 80.847656 223.222656 80.214844 222.339844 79.625 C 221.457031 79.03125 220.546875 78.488281 219.609375 77.984375 C 218.671875 77.484375 217.710938 77.027344 216.730469 76.621094 C 215.746094 76.214844 214.746094 75.855469 213.730469 75.542969 C 212.710938 75.234375 211.683594 74.976562 210.640625 74.765625 C 209.597656 74.558594 208.546875 74.402344 207.488281 74.296875 C 206.429688 74.191406 205.371094 74.136719 204.304688 74.136719 L 170.691406 74.136719 C 169.628906 74.136719 168.566406 74.191406 167.507812 74.296875 C 166.453125 74.402344 165.402344 74.558594 164.359375 74.765625 C 163.316406 74.976562 162.285156 75.234375 161.269531 75.542969 C 160.25 75.855469 159.25 76.214844 158.269531 76.621094 C 157.289062 77.027344 156.328125 77.484375 155.390625 77.984375 C 154.453125 78.488281 153.542969 79.03125 152.65625 79.625 C 151.773438 80.214844 150.921875 80.847656 150.097656 81.523438 C 149.277344 82.199219 148.492188 82.910156 147.738281 83.664062 C 146.988281 84.414062 146.273438 85.203125 145.597656 86.023438 C 144.921875 86.84375 144.289062 87.699219 143.699219 88.582031 C 143.109375 89.464844 142.5625 90.375 142.058594 91.3125 C 141.558594 92.25 141.105469 93.210938 140.695312 94.195312 C 140.289062 95.175781 139.929688 96.175781 139.621094 97.191406 C 139.3125 98.210938 139.050781 99.238281 138.84375 100.28125 C 138.632812 101.324219 138.476562 102.375 138.371094 103.433594 C 138.265625 104.492188 138.210938 105.550781 138.210938 106.617188 L 138.210938 113.566406 L 93.851562 113.566406 C 93.203125 113.566406 92.5625 113.628906 91.929688 113.753906 C 91.292969 113.882812 90.675781 114.070312 90.078125 114.316406 C 89.480469 114.5625 88.914062 114.867188 88.375 115.226562 C 87.835938 115.585938 87.339844 115.996094 86.878906 116.453125 C 86.421875 116.910156 86.015625 117.410156 85.65625 117.945312 C 85.296875 118.484375 84.992188 119.054688 84.742188 119.652344 C 84.496094 120.25 84.308594 120.867188 84.183594 121.5 C 84.054688 122.136719 83.992188 122.777344 83.992188 123.421875 C 83.992188 124.070312 84.054688 124.710938 84.183594 125.347656 C 84.308594 125.980469 84.496094 126.597656 84.742188 127.195312 C 84.992188 127.792969 85.296875 128.363281 85.65625 128.898438 C 86.015625 129.4375 86.421875 129.9375 86.878906 130.394531 C 87.339844 130.851562 87.835938 131.261719 88.375 131.621094 C 88.914062 131.980469 89.480469 132.28125 90.078125 132.53125 C 90.675781 132.777344 91.292969 132.964844 91.929688 133.089844 C 92.5625 133.21875 93.203125 133.28125 93.851562 133.28125 L 108.636719 133.28125 L 108.636719 268.234375 C 108.640625 269.300781 108.691406 270.367188 108.800781 271.433594 C 108.90625 272.496094 109.0625 273.554688 109.273438 274.601562 C 109.484375 275.648438 109.746094 276.683594 110.054688 277.707031 C 110.367188 278.730469 110.730469 279.734375 111.140625 280.722656 C 111.550781 281.710938 112.007812 282.675781 112.511719 283.617188 C 113.015625 284.5625 113.566406 285.476562 114.160156 286.363281 C 114.757812 287.253906 115.394531 288.109375 116.074219 288.9375 C 116.75 289.761719 117.46875 290.550781 118.226562 291.308594 C 118.984375 292.0625 119.773438 292.78125 120.601562 293.457031 C 121.429688 294.136719 122.285156 294.773438 123.175781 295.363281 C 124.066406 295.957031 124.980469 296.507812 125.925781 297.011719 C 126.867188 297.515625 127.832031 297.96875 128.820312 298.378906 C 129.808594 298.789062 130.816406 299.148438 131.839844 299.457031 C 132.863281 299.769531 133.898438 300.027344 134.945312 300.234375 C 135.996094 300.445312 137.050781 300.601562 138.117188 300.703125 C 139.179688 300.808594 140.246094 300.863281 141.316406 300.863281 L 233.730469 300.863281 C 234.800781 300.859375 235.867188 300.804688 236.929688 300.699219 C 237.992188 300.59375 239.046875 300.4375 240.09375 300.226562 C 241.140625 300.015625 242.175781 299.757812 243.199219 299.445312 C 244.21875 299.136719 245.222656 298.773438 246.210938 298.363281 C 247.195312 297.957031 248.160156 297.5 249.101562 296.996094 C 250.046875 296.492188 250.960938 295.941406 251.847656 295.347656 C 252.734375 294.753906 253.59375 294.117188 254.417969 293.441406 C 255.242188 292.761719 256.035156 292.046875 256.789062 291.289062 C 257.542969 290.535156 258.261719 289.746094 258.9375 288.917969 C 259.617188 288.09375 260.253906 287.238281 260.847656 286.347656 C 261.441406 285.460938 261.988281 284.546875 262.492188 283.605469 C 262.996094 282.664062 263.453125 281.699219 263.863281 280.710938 C 264.273438 279.726562 264.632812 278.722656 264.945312 277.699219 C 265.253906 276.675781 265.515625 275.644531 265.726562 274.59375 C 265.933594 273.546875 266.09375 272.492188 266.199219 271.429688 C 266.304688 270.367188 266.359375 269.300781 266.359375 268.234375 L 266.359375 133.28125 L 281.148438 133.28125 C 281.792969 133.28125 282.433594 133.21875 283.070312 133.089844 C 283.707031 132.964844 284.320312 132.777344 284.917969 132.53125 C 285.519531 132.28125 286.085938 131.980469 286.625 131.621094 C 287.160156 131.261719 287.660156 130.851562 288.117188 130.394531 C 288.574219 129.9375 288.984375 129.4375 289.34375 128.898438 C 289.703125 128.363281 290.007812 127.792969 290.253906 127.195312 C 290.503906 126.597656 290.6875 125.980469 290.816406 125.347656 C 290.941406 124.710938 291.003906 124.070312 291.003906 123.421875 C 291.003906 122.777344 290.941406 122.136719 290.816406 121.5 C 290.6875 120.867188 290.503906 120.25 290.253906 119.652344 C 290.007812 119.054688 289.703125 118.484375 289.34375 117.945312 C 288.984375 117.410156 288.574219 116.910156 288.117188 116.453125 C 287.660156 115.996094 287.160156 115.585938 286.625 115.226562 C 286.085938 114.867188 285.519531 114.5625 284.917969 114.316406 C 284.320312 114.070312 283.707031 113.882812 283.070312 113.753906 C 282.433594 113.628906 281.792969 113.566406 281.148438 113.566406 Z M 157.925781 106.617188 C 157.925781 105.777344 158.007812 104.949219 158.171875 104.125 C 158.335938 103.304688 158.578125 102.503906 158.898438 101.730469 C 159.21875 100.957031 159.613281 100.222656 160.078125 99.523438 C 160.542969 98.828125 161.074219 98.183594 161.664062 97.589844 C 162.257812 96.996094 162.902344 96.46875 163.597656 96 C 164.296875 95.535156 165.03125 95.144531 165.804688 94.820312 C 166.582031 94.5 167.378906 94.257812 168.203125 94.09375 C 169.023438 93.933594 169.851562 93.851562 170.691406 93.851562 L 204.304688 93.851562 C 205.144531 93.851562 205.976562 93.933594 206.796875 94.09375 C 207.617188 94.257812 208.417969 94.5 209.191406 94.820312 C 209.964844 95.144531 210.703125 95.535156 211.398438 96 C 212.09375 96.46875 212.742188 96.996094 213.332031 97.589844 C 213.925781 98.183594 214.457031 98.828125 214.921875 99.523438 C 215.386719 100.222656 215.78125 100.957031 216.101562 101.730469 C 216.421875 102.503906 216.664062 103.304688 216.828125 104.125 C 216.992188 104.949219 217.070312 105.777344 217.070312 106.617188 L 217.070312 113.566406 L 157.925781 113.566406 Z M 246.644531 268.234375 C 246.640625 269.082031 246.558594 269.917969 246.390625 270.75 C 246.222656 271.578125 245.976562 272.386719 245.648438 273.167969 C 245.324219 273.949219 244.925781 274.691406 244.453125 275.394531 C 243.984375 276.101562 243.449219 276.75 242.847656 277.351562 C 242.25 277.949219 241.597656 278.484375 240.894531 278.957031 C 240.191406 279.425781 239.449219 279.824219 238.664062 280.152344 C 237.882812 280.476562 237.078125 280.722656 236.246094 280.890625 C 235.417969 281.058594 234.578125 281.144531 233.730469 281.148438 L 141.316406 281.148438 C 140.464844 281.148438 139.625 281.0625 138.792969 280.898438 C 137.960938 280.734375 137.152344 280.488281 136.367188 280.164062 C 135.582031 279.839844 134.835938 279.441406 134.128906 278.972656 C 133.421875 278.5 132.769531 277.964844 132.167969 277.367188 C 131.566406 276.769531 131.027344 276.117188 130.554688 275.410156 C 130.082031 274.707031 129.679688 273.960938 129.355469 273.179688 C 129.027344 272.394531 128.777344 271.585938 128.609375 270.753906 C 128.441406 269.921875 128.355469 269.082031 128.351562 268.234375 L 128.351562 133.28125 L 246.644531 133.28125 Z M 246.644531 268.234375 " fill-opacity="1" fill-rule="nonzero"/></g><path fill="#ffffff" d="M 162.855469 155.410156 C 162.207031 155.410156 161.566406 155.476562 160.933594 155.601562 C 160.296875 155.726562 159.679688 155.914062 159.082031 156.160156 C 158.484375 156.410156 157.917969 156.714844 157.378906 157.074219 C 156.839844 157.433594 156.34375 157.839844 155.882812 158.300781 C 155.425781 158.757812 155.019531 159.253906 154.660156 159.792969 C 154.300781 160.332031 153.996094 160.898438 153.746094 161.496094 C 153.5 162.09375 153.3125 162.710938 153.1875 163.347656 C 153.058594 163.980469 152.996094 164.621094 152.996094 165.269531 L 152.996094 253.988281 C 152.996094 254.636719 153.058594 255.277344 153.1875 255.910156 C 153.3125 256.546875 153.5 257.164062 153.746094 257.761719 C 153.996094 258.359375 154.300781 258.925781 154.660156 259.464844 C 155.019531 260.003906 155.425781 260.5 155.882812 260.960938 C 156.34375 261.417969 156.839844 261.824219 157.378906 262.183594 C 157.917969 262.542969 158.484375 262.847656 159.082031 263.097656 C 159.679688 263.34375 160.296875 263.53125 160.933594 263.65625 C 161.566406 263.785156 162.207031 263.847656 162.855469 263.847656 C 163.503906 263.847656 164.144531 263.785156 164.777344 263.65625 C 165.414062 263.53125 166.027344 263.34375 166.628906 263.097656 C 167.226562 262.847656 167.792969 262.542969 168.332031 262.183594 C 168.871094 261.824219 169.367188 261.417969 169.824219 260.960938 C 170.28125 260.5 170.691406 260.003906 171.050781 259.464844 C 171.410156 258.925781 171.714844 258.359375 171.960938 257.761719 C 172.210938 257.164062 172.398438 256.546875 172.523438 255.910156 C 172.648438 255.277344 172.710938 254.636719 172.710938 253.988281 L 172.710938 165.269531 C 172.710938 164.621094 172.648438 163.980469 172.523438 163.347656 C 172.398438 162.710938 172.210938 162.09375 171.960938 161.496094 C 171.714844 160.898438 171.410156 160.332031 171.050781 159.792969 C 170.691406 159.253906 170.28125 158.757812 169.824219 158.300781 C 169.367188 157.839844 168.871094 157.433594 168.332031 157.074219 C 167.792969 156.714844 167.226562 156.410156 166.628906 156.160156 C 166.027344 155.914062 165.414062 155.726562 164.777344 155.601562 C 164.144531 155.476562 163.503906 155.410156 162.855469 155.410156 Z M 162.855469 155.410156 " fill-opacity="1" fill-rule="nonzero"/><path fill="#ffffff" d="M 212.144531 155.410156 C 211.496094 155.410156 210.855469 155.476562 210.21875 155.601562 C 209.585938 155.726562 208.96875 155.914062 208.371094 156.160156 C 207.773438 156.410156 207.203125 156.714844 206.667969 157.074219 C 206.128906 157.433594 205.628906 157.839844 205.171875 158.300781 C 204.714844 158.757812 204.304688 159.253906 203.945312 159.792969 C 203.585938 160.332031 203.285156 160.898438 203.035156 161.496094 C 202.789062 162.09375 202.601562 162.710938 202.476562 163.347656 C 202.347656 163.980469 202.285156 164.621094 202.285156 165.269531 L 202.285156 253.988281 C 202.285156 254.636719 202.347656 255.277344 202.476562 255.910156 C 202.601562 256.546875 202.789062 257.164062 203.035156 257.761719 C 203.285156 258.359375 203.585938 258.925781 203.945312 259.464844 C 204.304688 260.003906 204.714844 260.5 205.171875 260.960938 C 205.628906 261.417969 206.128906 261.824219 206.667969 262.183594 C 207.203125 262.542969 207.773438 262.847656 208.371094 263.097656 C 208.96875 263.34375 209.585938 263.53125 210.21875 263.65625 C 210.855469 263.785156 211.496094 263.847656 212.144531 263.847656 C 212.789062 263.847656 213.433594 263.785156 214.066406 263.65625 C 214.703125 263.53125 215.316406 263.34375 215.914062 263.097656 C 216.515625 262.847656 217.082031 262.542969 217.621094 262.183594 C 218.15625 261.824219 218.65625 261.417969 219.113281 260.960938 C 219.570312 260.5 219.980469 260.003906 220.339844 259.464844 C 220.699219 258.925781 221.003906 258.359375 221.25 257.761719 C 221.5 257.164062 221.683594 256.546875 221.8125 255.910156 C 221.9375 255.277344 222 254.636719 222 253.988281 L 222 165.269531 C 222 164.621094 221.9375 163.980469 221.8125 163.347656 C 221.683594 162.710938 221.5 162.09375 221.25 161.496094 C 221.003906 160.898438 220.699219 160.332031 220.339844 159.792969 C 219.980469 159.253906 219.570312 158.757812 219.113281 158.300781 C 218.65625 157.839844 218.15625 157.433594 217.621094 157.074219 C 217.082031 156.714844 216.515625 156.410156 215.914062 156.160156 C 215.316406 155.914062 214.703125 155.726562 214.066406 155.601562 C 213.433594 155.476562 212.789062 155.410156 212.144531 155.410156 Z M 212.144531 155.410156 " fill-opacity="1" fill-rule="nonzero"/></svg>