<svg xmlns="http://www.w3.org/2000/svg" xmlns:xlink="http://www.w3.org/1999/xlink" width="500" zoomAndPan="magnify" viewBox="0 0 375 374.999991" height="500" preserveAspectRatio="xMidYMid meet" version="1.0"><defs><clipPath id="6011513211"><path d="M 78.964844 80 L 295 80 L 295 296.09375 L 78.964844 296.09375 Z M 78.964844 80 " clip-rule="nonzero"/></clipPath></defs><path fill="#ffffff" d="M 138.398438 197.457031 L 231.257812 104.59375 L 270.40625 143.742188 L 177.542969 236.601562 L 133.511719 241.488281 Z M 138.398438 197.457031 " fill-opacity="1" fill-rule="nonzero"/><path fill="#ffffff" d="M 243.117188 92.726562 L 259.125 76.722656 C 259.769531 76.085938 260.46875 75.511719 261.226562 75.011719 C 261.984375 74.507812 262.78125 74.082031 263.621094 73.738281 C 264.460938 73.390625 265.324219 73.128906 266.214844 72.953125 C 267.105469 72.777344 268.003906 72.6875 268.914062 72.6875 C 269.820312 72.6875 270.722656 72.777344 271.613281 72.953125 C 272.503906 73.128906 273.367188 73.390625 274.207031 73.738281 C 275.046875 74.082031 275.84375 74.507812 276.601562 75.011719 C 277.355469 75.511719 278.058594 76.085938 278.699219 76.722656 L 298.269531 96.296875 C 298.910156 96.941406 299.480469 97.640625 299.984375 98.398438 C 300.488281 99.152344 300.914062 99.953125 301.261719 100.789062 C 301.609375 101.628906 301.871094 102.496094 302.046875 103.386719 C 302.222656 104.277344 302.3125 105.175781 302.3125 106.085938 C 302.3125 106.996094 302.222656 107.894531 302.046875 108.785156 C 301.871094 109.675781 301.609375 110.542969 301.261719 111.382812 C 300.914062 112.222656 300.488281 113.019531 299.984375 113.773438 C 299.480469 114.53125 298.910156 115.230469 298.269531 115.875 L 282.265625 131.875 Z M 243.117188 92.726562 " fill-opacity="1" fill-rule="nonzero"/><g clip-path="url(#6011513211)"><path fill="#ffffff" d="M 286.359375 192.335938 C 285.835938 192.335938 285.316406 192.386719 284.800781 192.492188 C 284.289062 192.59375 283.789062 192.746094 283.304688 192.945312 C 282.820312 193.144531 282.363281 193.390625 281.925781 193.683594 C 281.492188 193.972656 281.089844 194.304688 280.71875 194.675781 C 280.347656 195.042969 280.015625 195.445312 279.726562 195.882812 C 279.433594 196.316406 279.191406 196.777344 278.988281 197.261719 C 278.789062 197.746094 278.636719 198.246094 278.535156 198.757812 C 278.433594 199.273438 278.382812 199.789062 278.382812 200.3125 L 278.382812 272.105469 C 278.382812 272.628906 278.332031 273.144531 278.230469 273.660156 C 278.125 274.171875 277.976562 274.671875 277.773438 275.15625 C 277.574219 275.640625 277.328125 276.101562 277.039062 276.535156 C 276.746094 276.972656 276.414062 277.375 276.046875 277.746094 C 275.675781 278.113281 275.273438 278.445312 274.835938 278.734375 C 274.402344 279.027344 273.941406 279.273438 273.457031 279.472656 C 272.972656 279.675781 272.476562 279.824219 271.960938 279.925781 C 271.449219 280.03125 270.929688 280.082031 270.40625 280.082031 L 102.894531 280.082031 C 102.371094 280.082031 101.851562 280.03125 101.339844 279.925781 C 100.824219 279.824219 100.328125 279.675781 99.84375 279.472656 C 99.359375 279.273438 98.898438 279.027344 98.464844 278.734375 C 98.027344 278.445312 97.625 278.113281 97.253906 277.746094 C 96.886719 277.375 96.554688 276.972656 96.261719 276.535156 C 95.972656 276.101562 95.726562 275.640625 95.527344 275.15625 C 95.324219 274.671875 95.175781 274.171875 95.074219 273.660156 C 94.96875 273.144531 94.917969 272.628906 94.917969 272.105469 L 94.917969 104.59375 C 94.917969 104.070312 94.96875 103.550781 95.074219 103.039062 C 95.175781 102.523438 95.324219 102.027344 95.527344 101.542969 C 95.726562 101.058594 95.972656 100.597656 96.261719 100.164062 C 96.554688 99.726562 96.886719 99.324219 97.253906 98.953125 C 97.625 98.582031 98.027344 98.253906 98.464844 97.960938 C 98.898438 97.671875 99.359375 97.425781 99.84375 97.226562 C 100.328125 97.023438 100.824219 96.875 101.339844 96.769531 C 101.851562 96.667969 102.371094 96.617188 102.894531 96.617188 L 174.683594 96.617188 C 175.210938 96.617188 175.726562 96.566406 176.242188 96.464844 C 176.753906 96.363281 177.253906 96.210938 177.738281 96.011719 C 178.222656 95.808594 178.679688 95.566406 179.117188 95.273438 C 179.550781 94.984375 179.957031 94.652344 180.324219 94.28125 C 180.695312 93.910156 181.027344 93.507812 181.316406 93.074219 C 181.609375 92.636719 181.855469 92.175781 182.054688 91.695312 C 182.253906 91.210938 182.40625 90.710938 182.507812 90.199219 C 182.609375 89.683594 182.664062 89.164062 182.664062 88.640625 C 182.664062 88.117188 182.609375 87.597656 182.507812 87.085938 C 182.40625 86.570312 182.253906 86.074219 182.054688 85.589844 C 181.855469 85.105469 181.609375 84.644531 181.316406 84.210938 C 181.027344 83.773438 180.695312 83.371094 180.324219 83 C 179.957031 82.628906 179.550781 82.300781 179.117188 82.007812 C 178.679688 81.71875 178.222656 81.472656 177.738281 81.273438 C 177.253906 81.070312 176.753906 80.921875 176.242188 80.816406 C 175.726562 80.714844 175.210938 80.664062 174.683594 80.664062 L 102.894531 80.664062 C 102.113281 80.664062 101.332031 80.703125 100.550781 80.78125 C 99.769531 80.855469 98.996094 80.972656 98.226562 81.125 C 97.457031 81.277344 96.699219 81.46875 95.949219 81.695312 C 95.199219 81.921875 94.460938 82.1875 93.738281 82.484375 C 93.015625 82.785156 92.304688 83.121094 91.613281 83.488281 C 90.925781 83.859375 90.253906 84.261719 89.601562 84.699219 C 88.949219 85.132812 88.320312 85.597656 87.714844 86.097656 C 87.109375 86.59375 86.527344 87.121094 85.976562 87.671875 C 85.421875 88.226562 84.894531 88.808594 84.398438 89.414062 C 83.902344 90.019531 83.433594 90.648438 83 91.300781 C 82.5625 91.953125 82.160156 92.621094 81.792969 93.3125 C 81.421875 94.003906 81.085938 94.710938 80.789062 95.4375 C 80.488281 96.160156 80.222656 96.898438 79.996094 97.648438 C 79.769531 98.398438 79.578125 99.15625 79.425781 99.925781 C 79.273438 100.695312 79.15625 101.46875 79.082031 102.25 C 79.003906 103.027344 78.964844 103.8125 78.964844 104.59375 L 78.964844 272.105469 C 78.964844 272.886719 79.003906 273.667969 79.082031 274.449219 C 79.15625 275.230469 79.273438 276.003906 79.425781 276.773438 C 79.578125 277.542969 79.769531 278.300781 79.996094 279.050781 C 80.222656 279.800781 80.488281 280.539062 80.789062 281.261719 C 81.085938 281.984375 81.421875 282.691406 81.792969 283.382812 C 82.160156 284.074219 82.5625 284.746094 83 285.398438 C 83.433594 286.050781 83.902344 286.679688 84.398438 287.285156 C 84.894531 287.890625 85.421875 288.472656 85.976562 289.023438 C 86.527344 289.578125 87.109375 290.105469 87.714844 290.601562 C 88.320312 291.097656 88.949219 291.566406 89.601562 292 C 90.253906 292.4375 90.925781 292.839844 91.613281 293.207031 C 92.304688 293.578125 93.015625 293.914062 93.738281 294.210938 C 94.460938 294.511719 95.199219 294.777344 95.949219 295.003906 C 96.699219 295.230469 97.457031 295.421875 98.226562 295.574219 C 98.996094 295.726562 99.769531 295.84375 100.550781 295.917969 C 101.332031 295.996094 102.113281 296.035156 102.894531 296.035156 L 270.40625 296.035156 C 271.1875 296.035156 271.972656 295.996094 272.75 295.917969 C 273.53125 295.84375 274.304688 295.726562 275.074219 295.574219 C 275.84375 295.421875 276.601562 295.230469 277.351562 295.003906 C 278.101562 294.777344 278.839844 294.511719 279.5625 294.210938 C 280.285156 293.914062 280.996094 293.578125 281.6875 293.207031 C 282.375 292.839844 283.046875 292.4375 283.699219 292 C 284.351562 291.566406 284.980469 291.097656 285.585938 290.601562 C 286.191406 290.105469 286.773438 289.578125 287.328125 289.023438 C 287.878906 288.472656 288.40625 287.890625 288.902344 287.285156 C 289.402344 286.679688 289.867188 286.050781 290.300781 285.398438 C 290.738281 284.746094 291.140625 284.074219 291.507812 283.382812 C 291.878906 282.691406 292.214844 281.984375 292.511719 281.261719 C 292.8125 280.539062 293.078125 279.800781 293.304688 279.050781 C 293.53125 278.300781 293.722656 277.542969 293.875 276.773438 C 294.027344 276.003906 294.144531 275.230469 294.21875 274.449219 C 294.296875 273.667969 294.335938 272.886719 294.335938 272.105469 L 294.335938 200.3125 C 294.335938 199.789062 294.285156 199.273438 294.183594 198.757812 C 294.078125 198.246094 293.929688 197.746094 293.726562 197.261719 C 293.527344 196.777344 293.28125 196.316406 292.992188 195.882812 C 292.699219 195.445312 292.371094 195.042969 292 194.675781 C 291.628906 194.304688 291.226562 193.972656 290.789062 193.683594 C 290.355469 193.390625 289.894531 193.144531 289.410156 192.945312 C 288.925781 192.746094 288.429688 192.59375 287.914062 192.492188 C 287.402344 192.386719 286.882812 192.335938 286.359375 192.335938 Z M 286.359375 192.335938 " fill-opacity="1" fill-rule="nonzero"/></g></svg>